<?xml version="1.0" ?><svg viewBox="0 0 64 64" xmlns="http://www.w3.org/2000/svg"><defs><style>.cls-1,.cls-2{fill:none;stroke:#000;stroke-linejoin:round;stroke-width:2px;}.cls-1{stroke-linecap:round;}</style></defs><g id="coomunication"><line class="cls-1" x1="37.5858" x2="40.4142" y1="11.0858" y2="13.9142"/><line class="cls-1" x1="40.4142" x2="37.5858" y1="11.0858" y2="13.9142"/><circle cx="55.0821" cy="17.0978" r="1.0691"/><path class="cls-1" d="M38.6618,29.2973A28.0246,28.0246,0,0,0,4,56.5"/><path class="cls-1" d="M60,56.5a27.8918,27.8918,0,0,0-6.8478-18.3469"/><polyline class="cls-2" points="6.732 44.426 8 49.5 13 50.5 17 54.5 23 54.5 23 51.5 18 50.5 13 46.5 13 40.5 19 42.5 22 39.5 18.621 31.898"/><polyline class="cls-1" points="30.036 51.733 34.151 51.477 37.964 50.267"/><line class="cls-1" x1="23" x2="22" y1="42.5" y2="43.5"/><polygon class="cls-1" points="33 42.5 32 39.5 28 37.5 27 34.5 34 36.5 35 41.5 33 42.5"/><line class="cls-1" x1="22" x2="24" y1="47.5" y2="48.5"/><line class="cls-1" x1="28" x2="29" y1="47.5" y2="46.5"/><path class="cls-1" d="M48.3467,37.2409,45,42.5v4s1-1,3,2,4,2,4,2a9.0909,9.0909,0,0,1,5.08-6.4494"/><path class="cls-1" d="M30.0588,10H13.9412A1.9412,1.9412,0,0,0,12,11.9412V22.0588A1.9412,1.9412,0,0,0,13.9412,24H17l4,4V24h9.0588A1.9412,1.9412,0,0,0,32,22.0588V11.9412A1.9412,1.9412,0,0,0,30.0588,10Z"/><path class="cls-1" d="M40.9412,23H57.0588A1.9412,1.9412,0,0,1,59,24.9412V35.0588A1.9412,1.9412,0,0,1,57.0588,37H54l-4,4V37H40.9412A1.9412,1.9412,0,0,1,39,35.0588V24.9412A1.9412,1.9412,0,0,1,40.9412,23Z"/><circle cx="18.0821" cy="17.0978" r="1.0691"/><circle cx="22.0821" cy="17.0978" r="1.0691"/><circle cx="26.0821" cy="17.0978" r="1.0691"/><circle cx="45.0821" cy="30.0978" r="1.0691"/><circle cx="49.0821" cy="30.0978" r="1.0691"/><circle cx="53.0821" cy="30.0978" r="1.0691"/></g></svg>