<svg version="1.2" xmlns="http://www.w3.org/2000/svg" viewBox="0 0 496 351" width="496" height="351">
	<title>gecko-svgrepo-com</title>
	<style>
		.s0 { fill: #000000 } 
	</style>
	<g>
		<path class="s0" d="m465 132.6c-82.8-148.8-261.4-149.2-314-100.1 1 2 2 4.1 3 6.4 11.3 25.6 26.9 71.3 31.4 109.2 3.4-9.5 5.9-14.9 13.5-24.1 9.8-11.9 27.4-13.6 39.4-3.8 11.9 9.8 13.6 27.4 3.8 39.4-4.7 5.6-19.6 10.3-18 21.5 0 1.6 0.6 3.3 1.3 5 24.7-2.2 46.6-14.1 61.8-31.9 4-1.1 13.4-3.6 26-5.6-0.5-1.2-3-4.9-4.5-16.4-0.6-5.4-0.3-10.9 0.7-16.3 3.3-14.8 10.9-27.8 24.3-39.4 11.6-10.1 29.3-8.9 39.4 2.8 13 15 6.3 37.6-9.9 43.6-7.7 3.6-8 3.8-11 6.5-2.9 3.4-2.4 4.1-2.8 5.2-0.6 1-0.9 6 1.1 11.3 32.7 0.4 69.3 9.5 88.5 43.3 43.7 76.8 5.9 107.6-19.7 127-15.3 11.6-44.4 23.3-76.2 8.7-12.1-5.6-34.9-19.4-38.6-52.1-2.5-21.3 9.9-39.7 12.3-43.1 13.5-17.1 44.8-23.7 69.5-3.4 13.7 11.2 11.4 32.8 7.7 40.7-12.1 25.9-42.2 15.9-48.9 11.7-4.5-2.9-9.2 3.2-5.4 6.8 4 4 7.7 8.6 18.3 11.8 6.7 1.8 16 3 25.6-1.2 43.2-18.3 39-74.5-1.3-93.3-42.4-20.3-97.1 14.2-94.7 71.1 1.5 12.3 1.2 42.6 47.8 67.4 11.7 6.3 24.3 8.8 35.9 9.1 29.2 0.9 45.8-5.4 64-15.1 21.8-11.5 104.7-67.9 29.7-202.7z"/>
		<path class="s0" d="m329.2 176.3c15.7-3.1 17.3 1 22.1-3.1 3.5-3.1 3.9-8.4 0.9-12l-4.7-7.6c-0.5-1.4-4.7-9.7-4.5-14.9-0.9-10.5 7.6-18.8 16.8-22.1 13.4-5 17.7-21.5 8.9-32.4-7.2-8.8-20.2-10.1-29-2.9l-1.9 1.6c-3.4 2.8-6.8 6.1-9.9 10.1-16.3 20.4-18 46.5-0.6 66.9-2.3 0.4-31.4 4.6-52.5 34.1-3 3.4-2.7 8.6 0.7 11.6 3.4 3 8.7 2.7 11.7-0.8l1-1.1c19-24.1 38.2-27 41-27.4z"/>
		<path class="s0" d="m231.2 204.5l-5.8-6.8c-3.8-6.2-10.3-13.8-6.1-25.5 5.7-11.7 12.6-11.9 17.3-17.4 7.5-8.5 6.7-21.5-1.9-29-8.5-7.5-21.5-6.6-29 1.9-2.3 2.7-6 6.7-9.7 13.5-12.6 22.6-10.2 48.7 10.4 66.1-0.4 0.2-0.9 0.2-1.3 0.4-3.3 1-27.9 10.2-44.8 41.9-2.4 3.8-1.2 8.9 2.6 11.3 3.9 2.4 9 1.2 11.4-2.6 16.3-29.5 41.8-38.1 52.3-38.9 7.5-0.7 10.4-10.1 4.7-14.9z"/>
		<path class="s0" d="m120.9 5c-2.2 0-4 2-5.1 6.6-25.8 108.6-78.1 154.1-109.4 172.2-4.3 2.5-6.7 7.2-6.4 12.2 0.4 4.9 3.6 9.2 8.2 11 53.9 21.3 123.6 33.5 162.8-9.6 27.9-30.6-30.3-192.4-50.1-192.4z"/>
	</g>
</svg>